<svg data-v-fde0c5aa="" xmlns="http://www.w3.org/2000/svg" viewBox="0 0 300 300" class="iconLeft"><!----><defs data-v-fde0c5aa=""><!----></defs><rect data-v-fde0c5aa="" fill="transparent" x="0" y="0" width="300px" height="300px" class="logo-background-square"></rect><defs data-v-fde0c5aa=""><!----></defs><g data-v-fde0c5aa="" id="b9c3d91f-32e7-4537-8520-36ff4447442d" fill="#000000" transform="matrix(1.5754295204790463,0,0,1.5754295204790463,95.39911744923205,141.83139736914254)"><path d="M5.39 10.50L2.30 10.50L0.14 3.08L2.42 3.08L3.85 8.72L5.26 3.08L7.56 3.08L5.39 10.50ZM10.65 10.50L8.44 10.50L8.44 3.08L10.65 3.08L10.65 10.50ZM8.39-0.31L10.71-0.31L10.71 2.03L8.39 2.03L8.39-0.31ZM18.86 5.47L18.86 10.50L16.66 10.50L16.66 5.84L16.66 5.84Q16.66 4.80 15.68 4.80L15.68 4.80L15.68 4.80Q14.83 4.80 14.38 5.50L14.38 5.50L14.38 10.50L12.17 10.50L12.17 5.18L12.04 3.08L14.01 3.08L14.18 4.03L14.18 4.03Q14.98 2.90 16.56 2.90L16.56 2.90L16.56 2.90Q17.74 2.90 18.30 3.63L18.30 3.63L18.30 3.63Q18.86 4.35 18.86 5.47L18.86 5.47ZM26.89 6.59L26.89 7.59L22.16 7.59L22.16 7.59Q22.22 8.34 22.57 8.67L22.57 8.67L22.57 8.67Q22.92 9.00 23.56 9.00L23.56 9.00L23.56 9.00Q24.12 9.00 24.47 8.74L24.47 8.74L24.47 8.74Q24.81 8.47 24.81 8.12L24.81 8.12L26.89 8.12L26.89 8.18L26.89 8.18Q26.89 9.27 26.01 9.97L26.01 9.97L26.01 9.97Q25.12 10.68 23.55 10.68L23.55 10.68L23.55 10.68Q21.77 10.68 20.86 9.67L20.86 9.67L20.86 9.67Q19.95 8.67 19.95 6.99L19.95 6.99L19.95 6.59L19.95 6.59Q19.95 4.93 20.86 3.91L20.86 3.91L20.86 3.91Q21.77 2.90 23.46 2.90L23.46 2.90L23.46 2.90Q25.16 2.90 26.03 3.91L26.03 3.91L26.03 3.91Q26.89 4.91 26.89 6.59L26.89 6.59ZM24.67 5.99L24.67 5.99Q24.57 4.58 23.42 4.58L23.42 4.58L23.42 4.58Q22.27 4.58 22.18 5.99L22.18 5.99L24.67 5.99ZM34.68 6.59L34.68 7.59L29.95 7.59L29.95 7.59Q30.00 8.34 30.35 8.67L30.35 8.67L30.35 8.67Q30.70 9.00 31.35 9.00L31.35 9.00L31.35 9.00Q31.91 9.00 32.25 8.74L32.25 8.74L32.25 8.74Q32.59 8.47 32.59 8.12L32.59 8.12L34.68 8.12L34.68 8.18L34.68 8.18Q34.68 9.27 33.79 9.97L33.79 9.97L33.79 9.97Q32.90 10.68 31.33 10.68L31.33 10.68L31.33 10.68Q29.55 10.68 28.64 9.67L28.64 9.67L28.64 9.67Q27.73 8.67 27.73 6.99L27.73 6.99L27.73 6.59L27.73 6.59Q27.73 4.93 28.64 3.91L28.64 3.91L28.64 3.91Q29.55 2.90 31.25 2.90L31.25 2.90L31.25 2.90Q32.94 2.90 33.81 3.91L33.81 3.91L33.81 3.91Q34.68 4.91 34.68 6.59L34.68 6.59ZM32.45 5.99L32.45 5.99Q32.35 4.58 31.21 4.58L31.21 4.58L31.21 4.58Q30.06 4.58 29.96 5.99L29.96 5.99L32.45 5.99ZM38.71 0.98L38.71 3.08L40.61 3.08L40.61 5.01L38.71 5.01L38.71 7.69L38.71 7.69Q38.71 8.33 38.98 8.55L38.98 8.55L38.98 8.55Q39.24 8.78 39.80 8.78L39.80 8.78L39.80 8.78Q40.28 8.78 40.47 8.68L40.47 8.68L40.47 10.50L40.47 10.50Q40.15 10.68 39.28 10.68L39.28 10.68L39.28 10.68Q36.50 10.68 36.50 7.92L36.50 7.92L36.50 5.01L35.36 5.01L35.36 3.08L36.50 3.08L36.50 0.98L38.71 0.98ZM47.63 9.00L47.63 9.00L47.63 9.00Q48.62 9.00 48.62 8.27L48.62 8.27L48.62 8.27Q48.62 7.92 48.38 7.76L48.38 7.76L48.38 7.76Q48.15 7.59 47.52 7.53L47.52 7.53L47.52 7.53Q45.91 7.41 45.21 6.94L45.21 6.94L45.21 6.94Q44.51 6.47 44.51 5.45L44.51 5.45L44.51 5.32L44.51 5.32Q44.51 4.10 45.36 3.50L45.36 3.50L45.36 3.50Q46.21 2.90 47.63 2.90L47.63 2.90L47.63 2.90Q50.75 2.90 50.75 5.45L50.75 5.45L50.75 5.52L48.58 5.52L48.58 5.52Q48.58 4.58 47.63 4.58L47.63 4.58L47.63 4.58Q47.18 4.58 46.93 4.76L46.93 4.76L46.93 4.76Q46.69 4.94 46.69 5.25L46.69 5.25L46.69 5.25Q46.69 5.60 46.91 5.75L46.91 5.75L46.91 5.75Q47.14 5.91 47.75 5.96L47.75 5.96L47.75 5.96Q49.32 6.09 50.08 6.53L50.08 6.53L50.08 6.53Q50.85 6.97 50.85 8.06L50.85 8.06L50.85 8.19L50.85 8.19Q50.85 9.37 50.03 10.02L50.03 10.02L50.03 10.02Q49.21 10.68 47.63 10.68L47.63 10.68L47.63 10.68Q46.05 10.68 45.23 10.01L45.23 10.01L45.23 10.01Q44.42 9.34 44.42 8.22L44.42 8.22L44.42 8.15L46.62 8.15L46.62 8.15Q46.62 9.00 47.63 9.00ZM56.06 2.90L56.06 2.90L56.06 2.90Q56.21 2.90 56.27 2.91L56.27 2.91L56.27 5.04L55.89 5.04L55.89 5.04Q54.74 5.04 54.29 5.68L54.29 5.68L54.29 10.50L52.08 10.50L52.08 5.18L51.95 3.08L53.93 3.08L54.08 3.95L54.08 3.95Q54.82 2.90 56.06 2.90ZM59.68 10.50L57.47 10.50L57.47 3.08L59.68 3.08L59.68 10.50ZM57.41-0.31L59.74-0.31L59.74 2.03L57.41 2.03L57.41-0.31ZM65.83 10.50L62.73 10.50L60.58 3.08L62.86 3.08L64.29 8.72L65.70 3.08L68.00 3.08L65.83 10.50ZM75.26 10.50L73.28 10.50L73.14 9.73L73.14 9.73Q72.25 10.68 70.81 10.68L70.81 10.68L70.81 10.68Q69.64 10.68 69.09 10.06L69.09 10.06L69.09 10.06Q68.54 9.44 68.54 8.46L68.54 8.46L68.54 8.32L68.54 8.32Q68.54 7.20 69.22 6.66L69.22 6.66L69.22 6.66Q69.90 6.13 71.20 5.94L71.20 5.94L72.91 5.67L72.91 5.67Q72.90 5.10 72.67 4.84L72.67 4.84L72.67 4.84Q72.45 4.58 71.90 4.58L71.90 4.58L71.90 4.58Q70.91 4.58 70.91 5.53L70.91 5.53L68.82 5.53L68.82 5.40L68.82 5.40Q68.82 4.30 69.55 3.60L69.55 3.60L69.55 3.60Q70.28 2.90 71.97 2.90L71.97 2.90L71.97 2.90Q73.71 2.90 74.42 3.60L74.42 3.60L74.42 3.60Q75.12 4.30 75.12 5.73L75.12 5.73L75.12 8.40L75.26 10.50ZM71.62 8.89L71.62 8.89L71.62 8.89Q72.38 8.89 72.91 8.33L72.91 8.33L72.91 6.97L71.65 7.17L71.65 7.17Q70.74 7.32 70.74 8.05L70.74 8.05L70.74 8.13L70.74 8.13Q70.74 8.46 70.96 8.67L70.96 8.67L70.96 8.67Q71.18 8.89 71.62 8.89ZM79.51 9.00L79.51 9.00L79.51 9.00Q80.50 9.00 80.50 8.27L80.50 8.27L80.50 8.27Q80.50 7.92 80.26 7.76L80.26 7.76L80.26 7.76Q80.02 7.59 79.39 7.53L79.39 7.53L79.39 7.53Q77.78 7.41 77.08 6.94L77.08 6.94L77.08 6.94Q76.38 6.47 76.38 5.45L76.38 5.45L76.38 5.32L76.38 5.32Q76.38 4.10 77.24 3.50L77.24 3.50L77.24 3.50Q78.09 2.90 79.51 2.90L79.51 2.90L79.51 2.90Q82.63 2.90 82.63 5.45L82.63 5.45L82.63 5.52L80.46 5.52L80.46 5.52Q80.46 4.58 79.51 4.58L79.51 4.58L79.51 4.58Q79.06 4.58 78.81 4.76L78.81 4.76L78.81 4.76Q78.57 4.94 78.57 5.25L78.57 5.25L78.57 5.25Q78.57 5.60 78.79 5.75L78.79 5.75L78.79 5.75Q79.02 5.91 79.63 5.96L79.63 5.96L79.63 5.96Q81.20 6.09 81.96 6.53L81.96 6.53L81.96 6.53Q82.73 6.97 82.73 8.06L82.73 8.06L82.73 8.19L82.73 8.19Q82.73 9.37 81.91 10.02L81.91 10.02L81.91 10.02Q81.09 10.68 79.51 10.68L79.51 10.68L79.51 10.68Q77.92 10.68 77.11 10.01L77.11 10.01L77.11 10.01Q76.30 9.34 76.30 8.22L76.30 8.22L76.30 8.15L78.50 8.15L78.50 8.15Q78.50 9.00 79.51 9.00ZM86.81 0.98L86.81 3.08L88.72 3.08L88.72 5.01L86.81 5.01L86.81 7.69L86.81 7.69Q86.81 8.33 87.08 8.55L87.08 8.55L87.08 8.55Q87.35 8.78 87.91 8.78L87.91 8.78L87.91 8.78Q88.38 8.78 88.58 8.68L88.58 8.68L88.58 10.50L88.58 10.50Q88.26 10.68 87.39 10.68L87.39 10.68L87.39 10.68Q84.60 10.68 84.60 7.92L84.60 7.92L84.60 5.01L83.47 5.01L83.47 3.08L84.60 3.08L84.60 0.98L86.81 0.98ZM96.38 10.50L94.39 10.50L94.25 9.73L94.25 9.73Q93.37 10.68 91.92 10.68L91.92 10.68L91.92 10.68Q90.75 10.68 90.20 10.06L90.20 10.06L90.20 10.06Q89.66 9.44 89.66 8.46L89.66 8.46L89.66 8.32L89.66 8.32Q89.66 7.20 90.34 6.66L90.34 6.66L90.34 6.66Q91.01 6.13 92.32 5.94L92.32 5.94L94.02 5.67L94.02 5.67Q94.01 5.10 93.79 4.84L93.79 4.84L93.79 4.84Q93.56 4.58 93.02 4.58L93.02 4.58L93.02 4.58Q92.02 4.58 92.02 5.53L92.02 5.53L89.94 5.53L89.94 5.40L89.94 5.40Q89.94 4.30 90.66 3.60L90.66 3.60L90.66 3.60Q91.39 2.90 93.09 2.90L93.09 2.90L93.09 2.90Q94.82 2.90 95.53 3.60L95.53 3.60L95.53 3.60Q96.24 4.30 96.24 5.73L96.24 5.73L96.24 8.40L96.38 10.50ZM92.74 8.89L92.74 8.89L92.74 8.89Q93.49 8.89 94.02 8.33L94.02 8.33L94.02 6.97L92.76 7.17L92.76 7.17Q91.85 7.32 91.85 8.05L91.85 8.05L91.85 8.13L91.85 8.13Q91.85 8.46 92.07 8.67L92.07 8.67L92.07 8.67Q92.29 8.89 92.74 8.89ZM102.31 10.50L99.22 10.50L97.06 3.08L99.34 3.08L100.77 8.72L102.19 3.08L104.48 3.08L102.31 10.50Z"></path></g><defs data-v-fde0c5aa=""><linearGradient data-v-fde0c5aa="" gradientTransform="rotate(25)" id="31583fd4-c0be-4dae-8141-72f157428a09" x1="0%" y1="0%" x2="100%" y2="0%"><stop data-v-fde0c5aa="" offset="0%" stop-color="#E90DCA" stop-opacity="1"></stop><stop data-v-fde0c5aa="" offset="100%" stop-color="#1536F1" stop-opacity="1"></stop></linearGradient></defs><g data-v-fde0c5aa="" id="2dc85c79-7db8-4d1e-aa71-7aa352c4533a" stroke="none" fill="url(#31583fd4-c0be-4dae-8141-72f157428a09)" transform="matrix(0.33296099176777283,0,0,0.33296099176777283,40.000332857474916,128.69049652686255)"><path d="M74.313 25l-28.094 78h8.469l28.094-78h-8.469zM38 36.25l-2.188 1.406-34 22-1.813 1.156v4.25l1.688 1.219 34 24L38 91.875v-9.781L11.156 63.125 38 45.75v-9.5zm52 0v9.5l26.844 17.375L90 82.094v9.781l2.313-1.594 34-24 1.688-1.219v-4.25l-1.813-1.156-34-22L90 36.25z"></path></g><!----></svg>